<?xml version="1.0" standalone="no"?><svg xmlns="http://www.w3.org/2000/svg" viewBox="0 0 1440 320"><path fill="#AAB396" fill-opacity="1" d="M0,96L8.3,106.7C16.6,117,33,139,50,122.7C66.2,107,83,53,99,58.7C115.9,64,132,128,149,154.7C165.5,181,182,171,199,186.7C215.2,203,232,245,248,266.7C264.8,288,281,288,298,277.3C314.5,267,331,245,348,208C364.1,171,381,117,397,85.3C413.8,53,430,43,447,64C463.4,85,480,139,497,165.3C513.1,192,530,192,546,181.3C562.8,171,579,149,596,149.3C612.4,149,629,171,646,186.7C662.1,203,679,213,695,218.7C711.7,224,728,224,745,234.7C761.4,245,778,267,794,256C811,245,828,203,844,176C860.7,149,877,139,894,117.3C910.3,96,927,64,943,58.7C960,53,977,75,993,80C1009.7,85,1026,75,1043,80C1059.3,85,1076,107,1092,101.3C1109,96,1126,64,1142,74.7C1158.6,85,1175,139,1192,170.7C1208.3,203,1225,213,1241,213.3C1257.9,213,1274,203,1291,213.3C1307.6,224,1324,256,1341,272C1357.2,288,1374,288,1390,256C1406.9,224,1423,160,1432,128L1440,96L1440,0L1431.7,0C1423.4,0,1407,0,1390,0C1373.8,0,1357,0,1341,0C1324.1,0,1308,0,1291,0C1274.5,0,1258,0,1241,0C1224.8,0,1208,0,1192,0C1175.2,0,1159,0,1142,0C1125.5,0,1109,0,1092,0C1075.9,0,1059,0,1043,0C1026.2,0,1010,0,993,0C976.6,0,960,0,943,0C926.9,0,910,0,894,0C877.2,0,861,0,844,0C827.6,0,811,0,794,0C777.9,0,761,0,745,0C728.3,0,712,0,695,0C678.6,0,662,0,646,0C629,0,612,0,596,0C579.3,0,563,0,546,0C529.7,0,513,0,497,0C480,0,463,0,447,0C430.3,0,414,0,397,0C380.7,0,364,0,348,0C331,0,314,0,298,0C281.4,0,265,0,248,0C231.7,0,215,0,199,0C182.1,0,166,0,149,0C132.4,0,116,0,99,0C82.8,0,66,0,50,0C33.1,0,17,0,8,0L0,0Z"></path></svg>